<mxfile host="app.diagrams.net" agent="Mozilla/5.0 (Windows NT 10.0; Win64; x64) AppleWebKit/537.36 (KHTML, like Gecko) Chrome/135.0.0.0 Safari/537.36 Edg/135.0.0.0" version="26.2.13">
  <diagram name="Page-1" id="P5zze5a192UfyvzNWy5m">
    <mxGraphModel dx="3120" dy="2992" grid="1" gridSize="10" guides="1" tooltips="1" connect="1" arrows="1" fold="1" page="1" pageScale="1" pageWidth="850" pageHeight="1100" math="0" shadow="0">
      <root>
        <mxCell id="0" />
        <mxCell id="1" parent="0" />
        <mxCell id="DUYKCA-mDZrhNEODAv1z-66" style="edgeStyle=orthogonalEdgeStyle;rounded=0;orthogonalLoop=1;jettySize=auto;html=1;exitX=0.5;exitY=1;exitDx=0;exitDy=0;entryX=0.5;entryY=0;entryDx=0;entryDy=0;" edge="1" parent="1" source="DUYKCA-mDZrhNEODAv1z-15" target="DUYKCA-mDZrhNEODAv1z-15">
          <mxGeometry relative="1" as="geometry">
            <mxPoint x="720" y="870" as="targetPoint" />
          </mxGeometry>
        </mxCell>
        <mxCell id="DUYKCA-mDZrhNEODAv1z-111" style="edgeStyle=orthogonalEdgeStyle;rounded=0;orthogonalLoop=1;jettySize=auto;html=1;exitX=0.5;exitY=1;exitDx=0;exitDy=0;" edge="1" parent="1" source="DUYKCA-mDZrhNEODAv1z-15">
          <mxGeometry relative="1" as="geometry">
            <mxPoint x="709.272727272727" y="1490" as="targetPoint" />
          </mxGeometry>
        </mxCell>
        <mxCell id="DUYKCA-mDZrhNEODAv1z-15" value="" style="swimlane;startSize=80;" vertex="1" parent="1">
          <mxGeometry x="250" y="-150" width="920" height="1750" as="geometry" />
        </mxCell>
        <mxCell id="DUYKCA-mDZrhNEODAv1z-17" value="&lt;span style=&quot;font-size: 19px;&quot;&gt;&lt;b&gt;User&lt;/b&gt;&lt;/span&gt;" style="text;html=1;align=center;verticalAlign=middle;whiteSpace=wrap;rounded=0;" vertex="1" parent="DUYKCA-mDZrhNEODAv1z-15">
          <mxGeometry x="145" y="30" width="120" height="30" as="geometry" />
        </mxCell>
        <mxCell id="DUYKCA-mDZrhNEODAv1z-19" value="&lt;span style=&quot;font-size: 19px;&quot;&gt;&lt;b&gt;System&lt;/b&gt;&lt;/span&gt;" style="text;html=1;align=center;verticalAlign=middle;whiteSpace=wrap;rounded=0;" vertex="1" parent="DUYKCA-mDZrhNEODAv1z-15">
          <mxGeometry x="510" y="30" width="120" height="30" as="geometry" />
        </mxCell>
        <mxCell id="DUYKCA-mDZrhNEODAv1z-21" style="edgeStyle=orthogonalEdgeStyle;rounded=0;orthogonalLoop=1;jettySize=auto;html=1;exitX=1;exitY=0.5;exitDx=0;exitDy=0;entryX=1;entryY=0.75;entryDx=0;entryDy=0;" edge="1" parent="DUYKCA-mDZrhNEODAv1z-15" source="DUYKCA-mDZrhNEODAv1z-17" target="DUYKCA-mDZrhNEODAv1z-17">
          <mxGeometry relative="1" as="geometry" />
        </mxCell>
        <mxCell id="DUYKCA-mDZrhNEODAv1z-26" value="" style="ellipse;html=1;shape=startState;fillColor=#000000;strokeColor=#ff0000;" vertex="1" parent="DUYKCA-mDZrhNEODAv1z-15">
          <mxGeometry x="156" y="160" width="30" height="30" as="geometry" />
        </mxCell>
        <mxCell id="DUYKCA-mDZrhNEODAv1z-27" value="" style="edgeStyle=orthogonalEdgeStyle;html=1;verticalAlign=bottom;endArrow=open;endSize=8;strokeColor=#ff0000;rounded=0;entryX=0.5;entryY=0;entryDx=0;entryDy=0;" edge="1" source="DUYKCA-mDZrhNEODAv1z-26" parent="DUYKCA-mDZrhNEODAv1z-15">
          <mxGeometry relative="1" as="geometry">
            <mxPoint x="170" y="250" as="targetPoint" />
            <Array as="points">
              <mxPoint x="171" y="250" />
            </Array>
          </mxGeometry>
        </mxCell>
        <mxCell id="DUYKCA-mDZrhNEODAv1z-49" style="edgeStyle=orthogonalEdgeStyle;rounded=0;orthogonalLoop=1;jettySize=auto;html=1;exitX=0.5;exitY=0;exitDx=0;exitDy=0;exitPerimeter=0;entryX=1;entryY=0.5;entryDx=0;entryDy=0;" edge="1" parent="DUYKCA-mDZrhNEODAv1z-15" source="DUYKCA-mDZrhNEODAv1z-35" target="DUYKCA-mDZrhNEODAv1z-40">
          <mxGeometry relative="1" as="geometry" />
        </mxCell>
        <mxCell id="DUYKCA-mDZrhNEODAv1z-50" style="edgeStyle=orthogonalEdgeStyle;rounded=0;orthogonalLoop=1;jettySize=auto;html=1;exitX=0.5;exitY=1;exitDx=0;exitDy=0;exitPerimeter=0;entryX=0.5;entryY=0;entryDx=0;entryDy=0;" edge="1" parent="DUYKCA-mDZrhNEODAv1z-15" source="DUYKCA-mDZrhNEODAv1z-35" target="DUYKCA-mDZrhNEODAv1z-43">
          <mxGeometry relative="1" as="geometry" />
        </mxCell>
        <mxCell id="DUYKCA-mDZrhNEODAv1z-35" value="" style="strokeWidth=2;html=1;shape=mxgraph.flowchart.decision;whiteSpace=wrap;" vertex="1" parent="DUYKCA-mDZrhNEODAv1z-15">
          <mxGeometry x="610" y="370" width="100" height="100" as="geometry" />
        </mxCell>
        <mxCell id="DUYKCA-mDZrhNEODAv1z-60" style="edgeStyle=orthogonalEdgeStyle;rounded=0;orthogonalLoop=1;jettySize=auto;html=1;exitX=1;exitY=0.5;exitDx=0;exitDy=0;entryX=0;entryY=0.5;entryDx=0;entryDy=0;" edge="1" parent="DUYKCA-mDZrhNEODAv1z-15" source="DUYKCA-mDZrhNEODAv1z-38" target="DUYKCA-mDZrhNEODAv1z-58">
          <mxGeometry relative="1" as="geometry" />
        </mxCell>
        <mxCell id="DUYKCA-mDZrhNEODAv1z-38" value="" style="rhombus;whiteSpace=wrap;html=1;" vertex="1" parent="DUYKCA-mDZrhNEODAv1z-15">
          <mxGeometry x="130" y="850" width="80" height="80" as="geometry" />
        </mxCell>
        <mxCell id="DUYKCA-mDZrhNEODAv1z-45" value="" style="edgeStyle=orthogonalEdgeStyle;rounded=0;orthogonalLoop=1;jettySize=auto;html=1;" edge="1" parent="DUYKCA-mDZrhNEODAv1z-15" source="DUYKCA-mDZrhNEODAv1z-40" target="DUYKCA-mDZrhNEODAv1z-41">
          <mxGeometry relative="1" as="geometry" />
        </mxCell>
        <mxCell id="DUYKCA-mDZrhNEODAv1z-40" value="" style="rounded=1;whiteSpace=wrap;html=1;" vertex="1" parent="DUYKCA-mDZrhNEODAv1z-15">
          <mxGeometry x="111" y="250" width="120" height="60" as="geometry" />
        </mxCell>
        <mxCell id="DUYKCA-mDZrhNEODAv1z-48" style="edgeStyle=orthogonalEdgeStyle;rounded=0;orthogonalLoop=1;jettySize=auto;html=1;exitX=1;exitY=0.5;exitDx=0;exitDy=0;" edge="1" parent="DUYKCA-mDZrhNEODAv1z-15" source="DUYKCA-mDZrhNEODAv1z-41" target="DUYKCA-mDZrhNEODAv1z-35">
          <mxGeometry relative="1" as="geometry" />
        </mxCell>
        <mxCell id="DUYKCA-mDZrhNEODAv1z-41" value="" style="rounded=1;whiteSpace=wrap;html=1;" vertex="1" parent="DUYKCA-mDZrhNEODAv1z-15">
          <mxGeometry x="111" y="390" width="120" height="60" as="geometry" />
        </mxCell>
        <mxCell id="DUYKCA-mDZrhNEODAv1z-54" style="edgeStyle=orthogonalEdgeStyle;rounded=0;orthogonalLoop=1;jettySize=auto;html=1;exitX=0.5;exitY=1;exitDx=0;exitDy=0;entryX=0.5;entryY=0;entryDx=0;entryDy=0;" edge="1" parent="DUYKCA-mDZrhNEODAv1z-15" source="DUYKCA-mDZrhNEODAv1z-42" target="DUYKCA-mDZrhNEODAv1z-53">
          <mxGeometry relative="1" as="geometry" />
        </mxCell>
        <mxCell id="DUYKCA-mDZrhNEODAv1z-42" value="" style="rounded=1;whiteSpace=wrap;html=1;" vertex="1" parent="DUYKCA-mDZrhNEODAv1z-15">
          <mxGeometry x="111" y="520" width="120" height="60" as="geometry" />
        </mxCell>
        <mxCell id="DUYKCA-mDZrhNEODAv1z-43" value="" style="rounded=1;whiteSpace=wrap;html=1;" vertex="1" parent="DUYKCA-mDZrhNEODAv1z-15">
          <mxGeometry x="600" y="540" width="120" height="60" as="geometry" />
        </mxCell>
        <mxCell id="DUYKCA-mDZrhNEODAv1z-52" style="edgeStyle=orthogonalEdgeStyle;rounded=0;orthogonalLoop=1;jettySize=auto;html=1;exitX=0;exitY=0.5;exitDx=0;exitDy=0;entryX=0.908;entryY=0.722;entryDx=0;entryDy=0;entryPerimeter=0;" edge="1" parent="DUYKCA-mDZrhNEODAv1z-15" source="DUYKCA-mDZrhNEODAv1z-43" target="DUYKCA-mDZrhNEODAv1z-42">
          <mxGeometry relative="1" as="geometry" />
        </mxCell>
        <mxCell id="DUYKCA-mDZrhNEODAv1z-56" style="edgeStyle=orthogonalEdgeStyle;rounded=0;orthogonalLoop=1;jettySize=auto;html=1;exitX=0.5;exitY=1;exitDx=0;exitDy=0;entryX=0.5;entryY=0;entryDx=0;entryDy=0;" edge="1" parent="DUYKCA-mDZrhNEODAv1z-15" source="DUYKCA-mDZrhNEODAv1z-53" target="DUYKCA-mDZrhNEODAv1z-55">
          <mxGeometry relative="1" as="geometry" />
        </mxCell>
        <mxCell id="DUYKCA-mDZrhNEODAv1z-53" value="" style="rounded=1;whiteSpace=wrap;html=1;" vertex="1" parent="DUYKCA-mDZrhNEODAv1z-15">
          <mxGeometry x="110" y="640" width="120" height="60" as="geometry" />
        </mxCell>
        <mxCell id="DUYKCA-mDZrhNEODAv1z-57" style="edgeStyle=orthogonalEdgeStyle;rounded=0;orthogonalLoop=1;jettySize=auto;html=1;exitX=0.5;exitY=1;exitDx=0;exitDy=0;entryX=0.5;entryY=0;entryDx=0;entryDy=0;" edge="1" parent="DUYKCA-mDZrhNEODAv1z-15" source="DUYKCA-mDZrhNEODAv1z-55" target="DUYKCA-mDZrhNEODAv1z-38">
          <mxGeometry relative="1" as="geometry" />
        </mxCell>
        <mxCell id="DUYKCA-mDZrhNEODAv1z-55" value="" style="rounded=1;whiteSpace=wrap;html=1;" vertex="1" parent="DUYKCA-mDZrhNEODAv1z-15">
          <mxGeometry x="110" y="750" width="120" height="60" as="geometry" />
        </mxCell>
        <mxCell id="DUYKCA-mDZrhNEODAv1z-67" style="edgeStyle=orthogonalEdgeStyle;rounded=0;orthogonalLoop=1;jettySize=auto;html=1;exitX=0.5;exitY=1;exitDx=0;exitDy=0;entryX=0.5;entryY=0;entryDx=0;entryDy=0;" edge="1" parent="DUYKCA-mDZrhNEODAv1z-15" source="DUYKCA-mDZrhNEODAv1z-58" target="DUYKCA-mDZrhNEODAv1z-63">
          <mxGeometry relative="1" as="geometry" />
        </mxCell>
        <mxCell id="DUYKCA-mDZrhNEODAv1z-58" value="تاكد من الرصيد" style="rounded=1;whiteSpace=wrap;html=1;" vertex="1" parent="DUYKCA-mDZrhNEODAv1z-15">
          <mxGeometry x="610" y="860" width="120" height="60" as="geometry" />
        </mxCell>
        <mxCell id="DUYKCA-mDZrhNEODAv1z-62" style="edgeStyle=orthogonalEdgeStyle;rounded=0;orthogonalLoop=1;jettySize=auto;html=1;exitX=0;exitY=0.5;exitDx=0;exitDy=0;entryX=0;entryY=0.5;entryDx=0;entryDy=0;" edge="1" parent="DUYKCA-mDZrhNEODAv1z-15" source="DUYKCA-mDZrhNEODAv1z-38" target="DUYKCA-mDZrhNEODAv1z-42">
          <mxGeometry relative="1" as="geometry">
            <mxPoint x="110" y="1000" as="sourcePoint" />
            <Array as="points">
              <mxPoint x="40" y="890" />
              <mxPoint x="40" y="550" />
            </Array>
          </mxGeometry>
        </mxCell>
        <mxCell id="DUYKCA-mDZrhNEODAv1z-71" style="edgeStyle=orthogonalEdgeStyle;rounded=0;orthogonalLoop=1;jettySize=auto;html=1;exitX=0.5;exitY=1;exitDx=0;exitDy=0;" edge="1" parent="DUYKCA-mDZrhNEODAv1z-15" source="DUYKCA-mDZrhNEODAv1z-63">
          <mxGeometry relative="1" as="geometry">
            <mxPoint x="670.181818181818" y="1110" as="targetPoint" />
          </mxGeometry>
        </mxCell>
        <mxCell id="DUYKCA-mDZrhNEODAv1z-123" style="edgeStyle=orthogonalEdgeStyle;rounded=0;orthogonalLoop=1;jettySize=auto;html=1;exitX=0;exitY=0.5;exitDx=0;exitDy=0;entryX=1;entryY=0.5;entryDx=0;entryDy=0;" edge="1" parent="DUYKCA-mDZrhNEODAv1z-15" source="DUYKCA-mDZrhNEODAv1z-63" target="DUYKCA-mDZrhNEODAv1z-122">
          <mxGeometry relative="1" as="geometry" />
        </mxCell>
        <mxCell id="DUYKCA-mDZrhNEODAv1z-63" value="" style="rhombus;whiteSpace=wrap;html=1;" vertex="1" parent="DUYKCA-mDZrhNEODAv1z-15">
          <mxGeometry x="630" y="1000" width="80" height="80" as="geometry" />
        </mxCell>
        <mxCell id="DUYKCA-mDZrhNEODAv1z-70" value="" style="endArrow=none;html=1;rounded=0;strokeWidth=10;" edge="1" parent="DUYKCA-mDZrhNEODAv1z-15">
          <mxGeometry relative="1" as="geometry">
            <mxPoint x="540" y="1120" as="sourcePoint" />
            <mxPoint x="780" y="1120" as="targetPoint" />
            <Array as="points">
              <mxPoint x="670" y="1120" />
            </Array>
          </mxGeometry>
        </mxCell>
        <mxCell id="DUYKCA-mDZrhNEODAv1z-74" value="" style="rounded=1;whiteSpace=wrap;html=1;" vertex="1" parent="DUYKCA-mDZrhNEODAv1z-15">
          <mxGeometry x="690" y="1250" width="120" height="60" as="geometry" />
        </mxCell>
        <mxCell id="DUYKCA-mDZrhNEODAv1z-106" value="" style="rounded=1;whiteSpace=wrap;html=1;" vertex="1" parent="DUYKCA-mDZrhNEODAv1z-15">
          <mxGeometry x="540" y="1250" width="120" height="60" as="geometry" />
        </mxCell>
        <mxCell id="DUYKCA-mDZrhNEODAv1z-107" value="" style="endArrow=none;html=1;rounded=0;strokeWidth=10;" edge="1" parent="DUYKCA-mDZrhNEODAv1z-15">
          <mxGeometry relative="1" as="geometry">
            <mxPoint x="550" y="1360" as="sourcePoint" />
            <mxPoint x="790" y="1360" as="targetPoint" />
            <Array as="points">
              <mxPoint x="650" y="1360" />
            </Array>
          </mxGeometry>
        </mxCell>
        <mxCell id="DUYKCA-mDZrhNEODAv1z-130" style="edgeStyle=orthogonalEdgeStyle;rounded=0;orthogonalLoop=1;jettySize=auto;html=1;exitX=0.5;exitY=1;exitDx=0;exitDy=0;entryX=0.5;entryY=0;entryDx=0;entryDy=0;" edge="1" parent="DUYKCA-mDZrhNEODAv1z-15" source="DUYKCA-mDZrhNEODAv1z-110" target="DUYKCA-mDZrhNEODAv1z-124">
          <mxGeometry relative="1" as="geometry" />
        </mxCell>
        <mxCell id="DUYKCA-mDZrhNEODAv1z-110" value="" style="rounded=1;whiteSpace=wrap;html=1;" vertex="1" parent="DUYKCA-mDZrhNEODAv1z-15">
          <mxGeometry x="620" y="1380" width="120" height="60" as="geometry" />
        </mxCell>
        <mxCell id="DUYKCA-mDZrhNEODAv1z-118" value="" style="ellipse;html=1;shape=endState;fillColor=#000000;strokeColor=#ff0000;" vertex="1" parent="DUYKCA-mDZrhNEODAv1z-15">
          <mxGeometry x="665" y="1670" width="42" height="43" as="geometry" />
        </mxCell>
        <mxCell id="DUYKCA-mDZrhNEODAv1z-127" style="edgeStyle=orthogonalEdgeStyle;rounded=0;orthogonalLoop=1;jettySize=auto;html=1;exitX=0.5;exitY=1;exitDx=0;exitDy=0;entryX=0;entryY=0.5;entryDx=0;entryDy=0;" edge="1" parent="DUYKCA-mDZrhNEODAv1z-15" source="DUYKCA-mDZrhNEODAv1z-122" target="DUYKCA-mDZrhNEODAv1z-124">
          <mxGeometry relative="1" as="geometry" />
        </mxCell>
        <mxCell id="DUYKCA-mDZrhNEODAv1z-122" value="فشل اعد المحاولة بعد التحقق من الرصيد" style="rounded=1;whiteSpace=wrap;html=1;" vertex="1" parent="DUYKCA-mDZrhNEODAv1z-15">
          <mxGeometry x="66" y="1010" width="120" height="60" as="geometry" />
        </mxCell>
        <mxCell id="DUYKCA-mDZrhNEODAv1z-131" style="edgeStyle=orthogonalEdgeStyle;rounded=0;orthogonalLoop=1;jettySize=auto;html=1;exitX=0.5;exitY=1;exitDx=0;exitDy=0;entryX=0.5;entryY=0;entryDx=0;entryDy=0;" edge="1" parent="DUYKCA-mDZrhNEODAv1z-15" source="DUYKCA-mDZrhNEODAv1z-124" target="DUYKCA-mDZrhNEODAv1z-118">
          <mxGeometry relative="1" as="geometry" />
        </mxCell>
        <mxCell id="DUYKCA-mDZrhNEODAv1z-124" value="" style="rhombus;whiteSpace=wrap;html=1;" vertex="1" parent="DUYKCA-mDZrhNEODAv1z-15">
          <mxGeometry x="640" y="1500" width="80" height="80" as="geometry" />
        </mxCell>
        <mxCell id="DUYKCA-mDZrhNEODAv1z-72" value="" style="endArrow=classic;html=1;rounded=0;" edge="1" parent="1">
          <mxGeometry width="50" height="50" relative="1" as="geometry">
            <mxPoint x="930" y="970" as="sourcePoint" />
            <mxPoint x="1000" y="1100" as="targetPoint" />
          </mxGeometry>
        </mxCell>
        <mxCell id="DUYKCA-mDZrhNEODAv1z-73" value="" style="endArrow=classic;html=1;rounded=0;" edge="1" parent="1">
          <mxGeometry width="50" height="50" relative="1" as="geometry">
            <mxPoint x="920" y="960" as="sourcePoint" />
            <mxPoint x="860" y="1100" as="targetPoint" />
            <Array as="points" />
          </mxGeometry>
        </mxCell>
        <mxCell id="DUYKCA-mDZrhNEODAv1z-108" value="" style="endArrow=classic;html=1;rounded=0;exitX=0.5;exitY=1;exitDx=0;exitDy=0;" edge="1" parent="1" source="DUYKCA-mDZrhNEODAv1z-74">
          <mxGeometry width="50" height="50" relative="1" as="geometry">
            <mxPoint x="940" y="980" as="sourcePoint" />
            <mxPoint x="950" y="1210" as="targetPoint" />
          </mxGeometry>
        </mxCell>
        <mxCell id="DUYKCA-mDZrhNEODAv1z-109" value="" style="endArrow=classic;html=1;rounded=0;exitX=0.5;exitY=1;exitDx=0;exitDy=0;" edge="1" parent="1" source="DUYKCA-mDZrhNEODAv1z-106">
          <mxGeometry width="50" height="50" relative="1" as="geometry">
            <mxPoint x="930" y="970" as="sourcePoint" />
            <mxPoint x="910" y="1210" as="targetPoint" />
            <Array as="points" />
          </mxGeometry>
        </mxCell>
      </root>
    </mxGraphModel>
  </diagram>
</mxfile>
